<svg xmlns="http://www.w3.org/2000/svg" xmlns:xlink="http://www.w3.org/1999/xlink" width="500" zoomAndPan="magnify" viewBox="0 0 375 374.999991" height="500" preserveAspectRatio="xMidYMid meet" version="1.0"><defs><g/><clipPath id="529358f29c"><path d="M 187.5 0 C 83.945312 0 0 83.945312 0 187.5 C 0 291.054688 83.945312 375 187.5 375 C 291.054688 375 375 291.054688 375 187.5 C 375 83.945312 291.054688 0 187.5 0 Z M 187.5 0 " clip-rule="nonzero"/></clipPath></defs><g clip-path="url(#529358f29c)"><rect x="-37.5" width="450" fill="#000000" y="-37.499999" height="449.999989" fill-opacity="1"/><path stroke-linecap="butt" transform="matrix(0.75, 0, 0, 0.75, 0.0000045, 0)" fill="none" stroke-linejoin="miter" d="M 249.999994 0 C 111.927078 0 -0.000006 111.927084 -0.000006 250 C -0.000006 388.072917 111.927078 500.000001 249.999994 500.000001 C 388.072911 500.000001 499.999995 388.072917 499.999995 250 C 499.999995 111.927084 388.072911 0 249.999994 0 Z M 249.999994 0 " stroke="#000000" stroke-width="6" stroke-opacity="1" stroke-miterlimit="4"/></g><g fill="#ffffff" fill-opacity="1"><g transform="translate(26.877615, 277.570328)"><g><path d="M 9.457031 0.789062 L 100.890625 0.789062 C 151.863281 0.789062 193.113281 -40.460938 193.113281 -91.433594 C 193.113281 -142.40625 151.863281 -183.65625 100.890625 -183.65625 L 9.457031 -183.65625 C 9.195312 -183.65625 8.933594 -183.390625 8.933594 -183.128906 L 8.933594 0.261719 C 8.671875 0.527344 9.195312 0.789062 9.457031 0.789062 Z M 100.890625 -182.339844 C 139.253906 -182.339844 170.519531 -141.617188 170.519531 -91.433594 C 170.519531 -41.25 139.253906 -0.527344 100.890625 -0.527344 L 31.527344 -0.527344 L 31.527344 -165.527344 C 31.527344 -173.144531 26.800781 -179.714844 20.230469 -182.339844 Z M 100.890625 -182.339844 "/></g></g></g><g fill="#5e17eb" fill-opacity="1"><g transform="translate(229.190101, 277.570328)"><g><path d="M 13.398438 -183.917969 L 9.457031 -183.917969 C 9.195312 -183.917969 8.933594 -183.390625 8.933594 -183.128906 L 8.933594 0 C 8.933594 0.527344 9.195312 0.789062 9.457031 0.789062 L 77.769531 0.789062 C 103.519531 0.789062 124.277344 -19.96875 124.277344 -45.714844 C 124.277344 -68.574219 107.722656 -87.753906 85.914062 -91.433594 C 107.722656 -95.375 124.277344 -114.292969 124.277344 -137.148438 C 124.277344 -162.898438 103.519531 -183.65625 77.769531 -183.65625 L 13.398438 -183.65625 C 13.398438 -183.65625 13.398438 -183.917969 13.398438 -183.917969 Z M 77.769531 -90.644531 C 90.90625 -90.644531 101.679688 -70.414062 101.679688 -45.714844 C 101.679688 -20.757812 90.90625 -0.527344 77.769531 -0.527344 L 31.527344 -0.527344 L 31.527344 -90.644531 Z M 77.769531 -182.339844 C 90.90625 -182.339844 101.679688 -162.109375 101.679688 -137.148438 C 101.679688 -112.453125 90.90625 -92.222656 77.769531 -92.222656 L 31.527344 -92.222656 L 31.527344 -165.527344 C 31.527344 -173.144531 26.800781 -179.714844 20.230469 -182.339844 Z M 77.769531 -182.339844 "/></g></g></g></svg>